<?xml version="1.0" encoding="UTF-8"?>
<svg id="Ebene_2" data-name="Ebene 2" xmlns="http://www.w3.org/2000/svg" viewBox="0 0 1040 276.33">
  <defs>
    <style>
      .cls-1 {
        fill: #040305;
      }
    </style>
  </defs>
  <g id="Ebene_1-2" data-name="Ebene 1">
    <g>
      <g>
        <path class="cls-1" d="M315.83,276.33l34.72-34.72c11.9-11.79,27.6-18.28,44.19-18.28s32.24,6.33,44.24,18.33l23.86,23.87,132.32-132.32c8.67-8.59,17.87-16.48,27.57-23.63l-25.83-25.83C542.9,29.74,471.1,0,394.74,0c-37.7,0-74.45,7.3-109.23,21.69-34.54,14.28-65.56,34.93-92.2,61.33L0,276.33h315.83Z"/>
        <path class="cls-1" d="M706.83,276.33l15.17-15.17c9.5-9.42,21.28-15.66,34.05-18.21,4.28-.85,8.68-1.29,13.13-1.29,18.12,0,34.46,6.77,47.27,19.58l15.09,15.09h208.45l-119.3-119.33c-40.46-40.47-94.27-62.76-151.51-62.76-28.26,0-55.8,5.47-81.86,16.25-14.59,6.03-28.34,13.58-41.14,22.56-9.9,6.95-19.23,14.76-27.94,23.39l-119.89,119.89h208.48Z"/>
      </g>
      <g>
        <path class="cls-1" d="M315.83,276.33l34.72-34.72c11.9-11.79,27.6-18.28,44.19-18.28s32.24,6.33,44.24,18.33l23.86,23.87,132.32-132.32c8.67-8.59,17.87-16.48,27.57-23.63l-25.83-25.83C542.9,29.74,471.1,0,394.74,0c-37.7,0-74.45,7.3-109.23,21.69-34.54,14.28-65.56,34.93-92.2,61.33L0,276.33h315.83Z"/>
        <path class="cls-1" d="M706.83,276.33l15.17-15.17c9.5-9.42,21.28-15.66,34.05-18.21,4.28-.85,8.68-1.29,13.13-1.29,18.12,0,34.46,6.77,47.27,19.58l15.09,15.09h208.45l-119.3-119.33c-40.46-40.47-94.27-62.76-151.51-62.76-28.26,0-55.8,5.47-81.86,16.25-14.59,6.03-28.34,13.58-41.14,22.56-9.9,6.95-19.23,14.76-27.94,23.39l-119.89,119.89h208.48Z"/>
      </g>
    </g>
  </g>
</svg>